<?xml version="1.0" encoding="UTF-8"?>
<svg id="Layer_1" xmlns="http://www.w3.org/2000/svg" version="1.1" viewBox="0 0 800 800">
  <!-- Generator: Adobe Illustrator 30.0.0, SVG Export Plug-In . SVG Version: 2.1.1 Build 123)  -->
  <defs>
    <style>
      .st0 {
        fill: #e85fa2;
      }
    </style>
  </defs>
  <path class="st0" d="M767.5,275.3v281.1c-17.5,115.4-143.3,186.6-243.1,110.4-13-9.9-26.4-20.3-18.2-38.2,3.7-8.2,53-57.1,62.6-65.1,7.3-6,13-9.4,22.8-7,11.8,2.9,14.2,13.9,30,11,3.7-.7,9.4-3.9,11.7-6.9,9.5-12,5.4-59.3-.9-73.6-16.5-37.8-53.6-38.6-89.2-44.1-16.6,33.1-34.3,66.2-46.9,101.2-16.2,44.9-25.3,92.9-28.6,140.6-1.3,19.2,6.6,53.7-20.8,56.6-20.2,2.2-71.8,2.3-91.8,0-6.3-.7-19.4-8.4-19.4-15.1v-114h-84.6v106.9c0,10.2-9.3,20.7-19.5,22.1-28.2,3.8-64.1-2.6-93.1.1-10.9-1.6-18.1-8.2-19.4-19.4-3.1-27.4,1.7-58.7-1.4-87.5-6.5-59.7-34.7-82.3-57.6-131.7C-22.7,324.3,89,115.5,286.3,96c11.1-1.1,37.4.6,45.6-1.8,2.1-.6,17.6-12.6,22.1-15.2,44.7-25.8,93.8-29.7,141.3-8.5,9.5,4.2,35,22.4,40.8,23.7,11.9,2.7,35.7.2,49.9,1.8,91.4,9.9,172.6,86.3,181.5,179.3ZM163.6,697h43v-112.6c0-6.8,12-15,18.3-16.2,25.2-4.7,41.1-4.7,56.9-29.2,11-17.1,6.5-29.7,12.7-44.7,7.7-18.8,38.9-14.6,41.3,5.4,2.8,23.6-7,49-20.1,68.2h45.2c4.7,0,17.9,10.4,17.9,15.1v114h44.5c1.6-78.7,21.9-152.1,54.7-222.8,5.8-12.5,30.5-65.6,37.6-72.1,4-3.7,11.7-6.3,17.2-6.1,20.3.6,75.6,12.1,93.2,21.7,51.8,28.1,62.6,86.1,55.4,140.9-4.4,33.1-38.7,56.4-70.9,53.9-4.8-.4-20.3-5.8-22.2-5-1.8.8-25.6,24.8-27.3,27.3-.8,1.2-2,1.5-1.4,3.6,80.8,46.9,160.2-17.3,165-102.5,4.6-82.7-2.5-170.9-1.5-253.9-9.1-80.5-73.9-138.4-154.1-142.8-13.2-.7-33.4,2.2-45.3-.6s-31.7-20.5-44.1-26.2c-43.9-20.2-88.3-11-124.3,19.7-61.1,52-33.4,121.7,1.5,179.1,16,26.4,34,51.9,51.5,77.3,31.8-19.1,53.7-50.2,56.7-88,1.4-18-1.6-38.1,0-56,2.2-25.4,36.4-25.9,42.4-6.5,3.7,12.1,3,48.6,2.1,62.4-3.6,54.6-34.4,99.7-80.4,127.6-14.9,9-30.8,19.9-45.8,4.4-44.6-74.6-115-147.3-107.6-240.9,1.4-17.6,8.6-35.1,15.7-50.9-103.6,8.5-193.4,90.7-210.6,193.1-4.2,25.2-5,59-1.4,84.2,11.6,81.2,79.8,133.2,83,216.8l1.4,62.4Z"/>
  <path class="st0" d="M601.6,272.9c22.8-21.3,52.5,16.3,28.9,33.9-23.2,17.3-48.4-15.8-28.9-33.9Z"/>
</svg>