<svg xmlns="http://www.w3.org/2000/svg" viewBox="0 0 800 800">
  <path fill="#e85fa2" d="M767.5,275.3v281.1c-17.5,115.4-143.3,186.6-243.1,110.4-13-9.9-26.4-20.3-18.2-38.2,3.7-8.2,53-57.1,62.6-65.1,7.3-6,13-9.4,22.8-7,11.8,2.9,14.2,13.9,30,11,3.7-.7,9.4-3.9,11.7-6.9,9.5-12,5.4-59.3-.9-73.6-16.5-37.8-53.6-38.6-89.2-44.1-16.6,33.1-34.3,66.2-46.9,101.2-16.2,44.9-25.3,92.9-28.6,140.6-1.3,19.2,6.6,53.7-20.8,56.6-20.2,2.2-71.8,2.3-91.8,0-6.3-.7-19.4-8.4-19.4-15.1v-114h-84.6v106.9c0,10.2-9.3,20.7-19.5,22.1-28.2,3.8-64.1-2.6-93.1.1-10.9-1.6-18.1-8.2-19.4-19.4-3.1-27.4,1.7-58.7-1.4-87.5-6.5-59.7-34.7-82.3-57.6-131.7C-22.7,324.3,89,115.5,286.3,96c11.1-1.1,37.4.6,45.6-1.8,2.1-.6,17.6-12.6,22.1-15.2,44.7-25.8,93.8-29.7,141.3-8.5,9.5,4.2,35,22.4,40.8,23.7,11.9,2.7,35.7.2,49.9,1.8,91.4,9.9,172.6,86.3,181.5,179.3Z"/>
  <path fill="#e85fa2" d="M601.6,272.9c22.8-21.3,52.5,16.3,28.9,33.9-23.2,17.3-48.4-15.8-28.9-33.9Z"/>
</svg>
