<?xml version="1.0" encoding="UTF-8"?>
<svg id="Layer_2" data-name="Layer 2" xmlns="http://www.w3.org/2000/svg" xmlns:xlink="http://www.w3.org/1999/xlink" viewBox="0 0 163.62 173.27">
  <defs>
    <style>
      .cls-1 {
        fill: none;
      }

      .cls-2 {
        fill: #ff884d;
      }

      .cls-3 {
        clip-path: url(#clippath-17);
      }

      .cls-4 {
        clip-path: url(#clippath-11);
      }

      .cls-5 {
        clip-path: url(#clippath-16);
      }

      .cls-6 {
        clip-path: url(#clippath-10);
      }

      .cls-7 {
        clip-path: url(#clippath-15);
      }

      .cls-8 {
        clip-path: url(#clippath-13);
      }

      .cls-9 {
        clip-path: url(#clippath-14);
      }

      .cls-10 {
        clip-path: url(#clippath-12);
      }

      .cls-11 {
        clip-path: url(#clippath-1);
      }

      .cls-12 {
        clip-path: url(#clippath-3);
      }

      .cls-13 {
        clip-path: url(#clippath-4);
      }

      .cls-14 {
        clip-path: url(#clippath-2);
      }

      .cls-15 {
        clip-path: url(#clippath-7);
      }

      .cls-16 {
        clip-path: url(#clippath-6);
      }

      .cls-17 {
        clip-path: url(#clippath-9);
      }

      .cls-18 {
        clip-path: url(#clippath-8);
      }

      .cls-19 {
        clip-path: url(#clippath-5);
      }

      .cls-20 {
        clip-path: url(#clippath);
      }

      .cls-21 {
        fill: #2f8dcd;
      }
    </style>
    <clipPath id="clippath">
      <path class="cls-1" d="M68.06,7.14c3.94-3.94,10.45-3.83,14.53.24,4.07,4.08,4.18,10.58.24,14.53l-60.92,60.92c-3.95,3.94-10.45,3.84-14.53-.24s-4.18-10.58-.24-14.53L68.06,7.14Z"/>
    </clipPath>
    <clipPath id="clippath-1">
      <rect class="cls-1" x="3.29" y="3.27" width="82.67" height="82.67"/>
    </clipPath>
    <clipPath id="clippath-2">
      <rect class="cls-1" x="-8.19" y="34.54" width="106.35" height="20.87" transform="translate(-18.63 44.98) rotate(-45)"/>
    </clipPath>
    <clipPath id="clippath-3">
      <path class="cls-1" d="M68.06,7.14c3.94-3.94,10.45-3.83,14.53.24,4.07,4.08,4.18,10.58.24,14.53l-60.92,60.92c-3.95,3.94-10.45,3.84-14.53-.24s-4.18-10.58-.24-14.53L68.06,7.14Z"/>
    </clipPath>
    <clipPath id="clippath-4">
      <path class="cls-1" d="M103.53,25.3c3.94-3.94,10.44-3.83,14.52.24,4.08,4.07,4.18,10.58.24,14.52L24.92,133.44c-3.94,3.94-10.44,3.84-14.52-.24s-4.19-10.58-.24-14.53L103.53,25.3Z"/>
    </clipPath>
    <clipPath id="clippath-5">
      <rect class="cls-1" x="5.96" y="21.94" width="116" height="114.67"/>
    </clipPath>
    <clipPath id="clippath-6">
      <rect class="cls-1" x="6.06" y="21.94" width="115.9" height="114.67"/>
    </clipPath>
    <clipPath id="clippath-7">
      <rect class="cls-1" x="-11.9" y="68.92" width="152.27" height="20.88" transform="translate(-37.3 68.67) rotate(-45)"/>
    </clipPath>
    <clipPath id="clippath-8">
      <path class="cls-1" d="M103.53,25.3c3.94-3.94,10.44-3.83,14.52.24,4.08,4.07,4.18,10.58.24,14.52L24.92,133.44c-3.94,3.94-10.44,3.84-14.52-.24s-4.19-10.58-.24-14.53L103.53,25.3Z"/>
    </clipPath>
    <clipPath id="clippath-9">
      <path class="cls-1" d="M138.55,41.55c3.97-3.97,10.52-3.86,14.63.24,4.11,4.1,4.21,10.66.24,14.63l-94.07,94.07c-3.97,3.97-10.52,3.86-14.63-.24-4.11-4.11-4.21-10.66-.24-14.64l94.07-94.07Z"/>
    </clipPath>
    <clipPath id="clippath-10">
      <rect class="cls-1" x="40.62" y="37.94" width="116" height="116"/>
    </clipPath>
    <clipPath id="clippath-11">
      <rect class="cls-1" x="22.26" y="85.5" width="153.41" height="21.04" transform="translate(-38.91 98.1) rotate(-45)"/>
    </clipPath>
    <clipPath id="clippath-12">
      <path class="cls-1" d="M138.55,41.55c3.97-3.97,10.52-3.86,14.63.24,4.11,4.1,4.21,10.66.24,14.63l-94.07,94.07c-3.97,3.97-10.52,3.86-14.63-.24-4.11-4.11-4.21-10.66-.24-14.64l94.07-94.07Z"/>
    </clipPath>
    <clipPath id="clippath-13">
      <path class="cls-1" d="M141.71,90.45c3.94-3.94,10.44-3.83,14.52.24,4.08,4.07,4.19,10.58.24,14.52l-60.92,60.92c-3.94,3.94-10.45,3.84-14.52-.24-4.08-4.08-4.19-10.58-.24-14.52l60.92-60.92Z"/>
    </clipPath>
    <clipPath id="clippath-14">
      <rect class="cls-1" x="76.62" y="87.27" width="84" height="82.67"/>
    </clipPath>
    <clipPath id="clippath-15">
      <rect class="cls-1" x="76.79" y="87.27" width="83.84" height="82.67"/>
    </clipPath>
    <clipPath id="clippath-16">
      <rect class="cls-1" x="65.46" y="117.85" width="106.35" height="20.88" transform="translate(-55.97 121.46) rotate(-45)"/>
    </clipPath>
    <clipPath id="clippath-17">
      <path class="cls-1" d="M141.71,90.45c3.94-3.94,10.44-3.83,14.52.24,4.08,4.07,4.19,10.58.24,14.52l-60.92,60.92c-3.94,3.94-10.45,3.84-14.52-.24-4.08-4.08-4.19-10.58-.24-14.52l60.92-60.92Z"/>
    </clipPath>
  </defs>
  <g id="Layer_1-2" data-name="Layer 1">
    <rect class="cls-1" x="3.29" y="3.27" width="82.67" height="82.67"/>
    <g>
      <rect class="cls-1" x="-8.19" y="34.54" width="106.35" height="20.87" transform="translate(-18.63 44.98) rotate(-45)"/>
      <g class="cls-20">
        <g class="cls-11">
          <g class="cls-14">
            <g class="cls-12">
              <path class="cls-21" d="M0,75.2L75.2,0l14.76,14.76L14.76,89.96,0,75.2Z"/>
            </g>
          </g>
        </g>
      </g>
    </g>
    <rect class="cls-1" x="5.96" y="21.94" width="116" height="114.67"/>
    <g>
      <rect class="cls-1" x="-11.9" y="68.92" width="152.27" height="20.88" transform="translate(-37.3 68.67) rotate(-45)"/>
      <g class="cls-13">
        <g class="cls-19">
          <g class="cls-16">
            <g class="cls-15">
              <g class="cls-18">
                <path class="cls-21" d="M3.02,125.82L110.69,18.15l14.77,14.76L17.78,140.58l-14.77-14.76Z"/>
              </g>
            </g>
          </g>
        </g>
      </g>
    </g>
    <rect class="cls-1" x="40.62" y="37.94" width="116" height="116"/>
    <g>
      <rect class="cls-1" x="22.26" y="85.5" width="153.41" height="21.04" transform="translate(-38.91 98.1) rotate(-45)"/>
      <g class="cls-17">
        <g class="cls-6">
          <g class="cls-4">
            <g class="cls-10">
              <path class="cls-21" d="M37.29,142.82l108.48-108.48,14.88,14.88-108.48,108.48-14.88-14.88Z"/>
            </g>
          </g>
        </g>
      </g>
    </g>
    <rect class="cls-1" x="76.62" y="87.27" width="84" height="82.67"/>
    <g>
      <rect class="cls-1" x="65.46" y="117.85" width="106.35" height="20.88" transform="translate(-55.97 121.46) rotate(-45)"/>
      <g class="cls-8">
        <g class="cls-9">
          <g class="cls-7">
            <g class="cls-5">
              <g class="cls-3">
                <path class="cls-2" d="M73.65,158.51l75.2-75.2,14.77,14.76-75.2,75.2-14.77-14.76Z"/>
              </g>
            </g>
          </g>
        </g>
      </g>
    </g>
  </g>
</svg>